HIERARCHY
ROOT hips
{
  OFFSET 0.0000 0.0000 0.0000
  CHANNELS 6 Xposition Yposition Zposition Zrotation Xrotation Yrotation
  JOINT Lupleg
  {
    OFFSET -0.0172 -3.2113 -0.0760
    CHANNELS 3 Zrotation Xrotation Yrotation
    JOINT Lupleg_roll
    {
      OFFSET 6.5042 -0.0000 -0.0000
      CHANNELS 3 Zrotation Xrotation Yrotation
      JOINT Lleg
      {
        OFFSET 6.5042 0.0000 -0.0000
        CHANNELS 3 Zrotation Xrotation Yrotation
        JOINT Lleg_roll
        {
          OFFSET 6.7576 -0.0000 -0.0000
          CHANNELS 3 Zrotation Xrotation Yrotation
          JOINT Lfoot
          {
            OFFSET 6.7576 0.0000 0.0000
            CHANNELS 3 Zrotation Xrotation Yrotation
            JOINT Ltoes
            {
              OFFSET 4.7376 -0.0000 0.0000
              CHANNELS 3 Zrotation Xrotation Yrotation
              End Site
              {
                  OFFSET 2.7217 0.0000 -0.0000
              }
            }
          }
        }
      }
    }
  }
  JOINT Rupleg
  {
    OFFSET -3.1941 0.3307 -0.0815
    CHANNELS 3 Zrotation Xrotation Yrotation
    JOINT Rupleg_roll
    {
      OFFSET 6.5041 0.0000 -0.0000
      CHANNELS 3 Zrotation Xrotation Yrotation
      JOINT Rleg
      {
        OFFSET 6.5042 -0.0000 0.0000
        CHANNELS 3 Zrotation Xrotation Yrotation
        JOINT Rleg_roll
        {
          OFFSET 6.7577 0.0000 -0.0000
          CHANNELS 3 Zrotation Xrotation Yrotation
          JOINT Rfoot
          {
            OFFSET 6.7577 0.0000 -0.0000
            CHANNELS 3 Zrotation Xrotation Yrotation
            JOINT Rtoes
            {
              OFFSET 4.7376 0.0000 -0.0000
              CHANNELS 3 Zrotation Xrotation Yrotation
              End Site
              {
                  OFFSET 2.7217 0.0000 -0.0000
              }
            }
          }
        }
      }
    }
  }
  JOINT spine
  {
    OFFSET 0.9990 0.8959 -0.0879
    CHANNELS 3 Zrotation Xrotation Yrotation
    JOINT spine1
    {
      OFFSET 1.5198 0.0000 0.0000
      CHANNELS 3 Zrotation Xrotation Yrotation
      JOINT spine2
      {
        OFFSET 1.5671 0.0000 -0.0000
        CHANNELS 3 Zrotation Xrotation Yrotation
        JOINT spine3
        {
          OFFSET 1.6903 -0.0000 -0.0000
          CHANNELS 3 Zrotation Xrotation Yrotation
          JOINT spine4
          {
            OFFSET 1.3347 0.0000 -0.0000
            CHANNELS 3 Zrotation Xrotation Yrotation
            JOINT spine5
            {
              OFFSET 1.5174 -0.0000 0.0000
              CHANNELS 3 Zrotation Xrotation Yrotation
              JOINT spine6
              {
                OFFSET 1.5215 -0.0000 0.0000
                CHANNELS 3 Zrotation Xrotation Yrotation
                JOINT spine7
                {
                  OFFSET 1.5183 0.0000 0.0000
                  CHANNELS 3 Zrotation Xrotation Yrotation
                  JOINT spine8
                  {
                    OFFSET 1.5237 0.0000 0.0000
                    CHANNELS 3 Zrotation Xrotation Yrotation
                    JOINT spine9
                    {
                      OFFSET 1.5152 0.0000 0.0000
                      CHANNELS 3 Zrotation Xrotation Yrotation
                      JOINT neck
                      {
                        OFFSET 1.0660 -0.0000 0.0000
                        CHANNELS 3 Zrotation Xrotation Yrotation
                        JOINT head
                        {
                          OFFSET 3.7854 0.0000 0.0000
                          CHANNELS 3 Zrotation Xrotation Yrotation
                          End Site
                          {
                              OFFSET 4.0607 0.0000 0.0000
                          }
                        }
                      }
                      JOINT Lshoulder
                      {
                        OFFSET -0.6763 0.0210 -1.0220
                        CHANNELS 3 Zrotation Xrotation Yrotation
                        JOINT Larm
                        {
                          OFFSET 4.3385 0.0000 0.0000
                          CHANNELS 3 Zrotation Xrotation Yrotation
                          JOINT Larm_roll
                          {
                            OFFSET 3.9410 0.0000 -0.0000
                            CHANNELS 3 Zrotation Xrotation Yrotation
                            JOINT Lforearm
                            {
                              OFFSET 3.9410 -0.0000 0.0000
                              CHANNELS 3 Zrotation Xrotation Yrotation
                              JOINT Lforearmroll
                              {
                                OFFSET 4.4561 0.0000 0.0000
                                CHANNELS 3 Zrotation Xrotation Yrotation
                                JOINT Lhand
                                {
                                  OFFSET 4.4566 0.0000 0.0000
                                  CHANNELS 3 Zrotation Xrotation Yrotation
                                  JOINT Lmiddle1
                                  {
                                    OFFSET 2.7267 -0.0000 0.0000
                                    CHANNELS 3 Zrotation Xrotation Yrotation
                                    JOINT Lmiddle2
                                    {
                                      OFFSET 1.1590 0.0000 0.0000
                                      CHANNELS 3 Zrotation Xrotation Yrotation
                                      JOINT Lmiddle3
                                      {
                                        OFFSET 1.1963 -0.0000 0.0000
                                        CHANNELS 3 Zrotation Xrotation Yrotation
                                        End Site
                                        {
                                            OFFSET 1.0712 0.0000 0.0000
                                        }
                                      }
                                    }
                                  }
                                  JOINT Lthumb1
                                  {
                                    OFFSET 0.4559 -0.3316 0.4171
                                    CHANNELS 3 Zrotation Xrotation Yrotation
                                    JOINT Lthumb2
                                    {
                                      OFFSET 1.6118 0.0000 0.0000
                                      CHANNELS 3 Zrotation Xrotation Yrotation
                                      JOINT Lthumb3
                                      {
                                        OFFSET 1.3772 0.0000 0.0000
                                        CHANNELS 3 Zrotation Xrotation Yrotation
                                        End Site
                                        {
                                            OFFSET 1.1405 -0.0000 -0.0000
                                        }
                                      }
                                    }
                                  }
                                  JOINT Lindex1
                                  {
                                    OFFSET 2.5330 0.0283 0.7927
                                    CHANNELS 3 Zrotation Xrotation Yrotation
                                    JOINT Lindex2
                                    {
                                      OFFSET 1.0986 0.0000 0.0000
                                      CHANNELS 3 Zrotation Xrotation Yrotation
                                      JOINT Lindex3
                                      {
                                        OFFSET 1.0835 0.0000 -0.0000
                                        CHANNELS 3 Zrotation Xrotation Yrotation
                                        End Site
                                        {
                                            OFFSET 1.1422 0.0000 0.0000
                                        }
                                      }
                                    }
                                  }
                                  JOINT Lring1
                                  {
                                    OFFSET 2.4795 -0.2766 -0.6565
                                    CHANNELS 3 Zrotation Xrotation Yrotation
                                    JOINT Lring2
                                    {
                                      OFFSET 1.0727 -0.0000 -0.0000
                                      CHANNELS 3 Zrotation Xrotation Yrotation
                                      JOINT Lring3
                                      {
                                        OFFSET 0.8216 0.0000 -0.0000
                                        CHANNELS 3 Zrotation Xrotation Yrotation
                                        End Site
                                        {
                                            OFFSET 1.1344 -0.0000 -0.0000
                                        }
                                      }
                                    }
                                  }
                                  JOINT Lpinky1
                                  {
                                    OFFSET 2.0231 -0.4888 -1.3889
                                    CHANNELS 3 Zrotation Xrotation Yrotation
                                    JOINT Lpinky2
                                    {
                                      OFFSET 0.8723 0.0000 -0.0000
                                      CHANNELS 3 Zrotation Xrotation Yrotation
                                      JOINT Lpinky3
                                      {
                                        OFFSET 0.7154 0.0000 0.0000
                                        CHANNELS 3 Zrotation Xrotation Yrotation
                                        End Site
                                        {
                                            OFFSET 0.8910 0.0000 0.0000
                                        }
                                      }
                                    }
                                  }
                                }
                              }
                            }
                          }
                        }
                      }
                      JOINT Rshoulder
                      {
                        OFFSET -0.6762 0.0210 1.0051
                        CHANNELS 3 Zrotation Xrotation Yrotation
                        JOINT Rarm
                        {
                          OFFSET 4.3551 -0.0000 -0.0000
                          CHANNELS 3 Zrotation Xrotation Yrotation
                          JOINT Rarm_roll
                          {
                            OFFSET 3.9406 0.0000 0.0000
                            CHANNELS 3 Zrotation Xrotation Yrotation
                            JOINT Rforearm
                            {
                              OFFSET 3.9414 0.0000 0.0000
                              CHANNELS 3 Zrotation Xrotation Yrotation
                              JOINT Rforearmroll
                              {
                                OFFSET 4.4560 0.0000 0.0000
                                CHANNELS 3 Zrotation Xrotation Yrotation
                                JOINT Rhand
                                {
                                  OFFSET 4.4566 -0.0000 -0.0000
                                  CHANNELS 3 Zrotation Xrotation Yrotation
                                  JOINT Rmiddle1
                                  {
                                    OFFSET 2.7267 0.0000 0.0000
                                    CHANNELS 3 Zrotation Xrotation Yrotation
                                    JOINT Rmiddle2
                                    {
                                      OFFSET 1.1590 -0.0000 0.0000
                                      CHANNELS 3 Zrotation Xrotation Yrotation
                                      JOINT Rmiddle3
                                      {
                                        OFFSET 1.1963 0.0000 -0.0000
                                        CHANNELS 3 Zrotation Xrotation Yrotation
                                        End Site
                                        {
                                            OFFSET 1.0712 0.0000 0.0000
                                        }
                                      }
                                    }
                                  }
                                  JOINT Rthumb1
                                  {
                                    OFFSET 0.4559 -0.3316 -0.4171
                                    CHANNELS 3 Zrotation Xrotation Yrotation
                                    JOINT Rthumb2
                                    {
                                      OFFSET 1.6118 0.0000 0.0000
                                      CHANNELS 3 Zrotation Xrotation Yrotation
                                      JOINT Rthumb3
                                      {
                                        OFFSET 1.3772 0.0000 0.0000
                                        CHANNELS 3 Zrotation Xrotation Yrotation
                                        End Site
                                        {
                                            OFFSET 1.1404 -0.0000 -0.0000
                                        }
                                      }
                                    }
                                  }
                                  JOINT Rindex1
                                  {
                                    OFFSET 2.5330 0.0284 -0.7927
                                    CHANNELS 3 Zrotation Xrotation Yrotation
                                    JOINT Rindex2
                                    {
                                      OFFSET 1.0986 -0.0000 -0.0000
                                      CHANNELS 3 Zrotation Xrotation Yrotation
                                      JOINT Rindex3
                                      {
                                        OFFSET 1.0835 -0.0000 0.0000
                                        CHANNELS 3 Zrotation Xrotation Yrotation
                                        End Site
                                        {
                                            OFFSET 1.1422 0.0000 0.0000
                                        }
                                      }
                                    }
                                  }
                                  JOINT Rring1
                                  {
                                    OFFSET 2.4795 -0.2766 0.6565
                                    CHANNELS 3 Zrotation Xrotation Yrotation
                                    JOINT Rring2
                                    {
                                      OFFSET 1.0728 -0.0000 0.0000
                                      CHANNELS 3 Zrotation Xrotation Yrotation
                                      JOINT Rring3
                                      {
                                        OFFSET 0.8216 -0.0000 0.0000
                                        CHANNELS 3 Zrotation Xrotation Yrotation
                                        End Site
                                        {
                                            OFFSET 1.1344 0.0000 0.0000
                                        }
                                      }
                                    }
                                  }
                                  JOINT Rpinky1
                                  {
                                    OFFSET 2.0231 -0.4889 1.3889
                                    CHANNELS 3 Zrotation Xrotation Yrotation
                                    JOINT Rpinky2
                                    {
                                      OFFSET 0.8723 0.0000 -0.0000
                                      CHANNELS 3 Zrotation Xrotation Yrotation
                                      JOINT Rpinky3
                                      {
                                        OFFSET 0.7154 -0.0000 -0.0000
                                        CHANNELS 3 Zrotation Xrotation Yrotation
                                        End Site
                                        {
                                            OFFSET 0.8911 -0.0000 0.0000
                                        }
                                      }
                                    }
                                  }
                                }
                              }
                            }
                          }
                        }
                      }
                    }
                  }
                }
              }
            }
          }
        }
      }
    }
  }
}
MOTION
Frames:	7
Frame Time:	0.040000
-0.0030 32.3626 7.4228 48.29 4.46 -4.88 -135.89 -10.49 -7.26 0.00 -1.39 0.00 0.20 -6.68 7.82 -0.00 -0.85 -0.00 81.76 28.67 -90.35 30.06 0.50 -15.91 -137.84 27.61 -7.79 -0.01 -7.49 -0.00 -2.64 16.63 8.13 -0.00 2.52 0.00 90.70 30.03 -73.15 30.06 -0.50 15.91 -48.42 -78.32 -90.32 27.53 -0.00 -0.00 9.04 -0.00 -0.00 3.52 -0.00 -0.00 -5.82 -0.00 -0.00 -9.56 -0.00 -0.00 -10.96 -0.00 -0.00 -7.46 0.00 -0.00 -5.50 0.00 -0.00 19.86 -0.00 0.00 -8.89 -0.00 -0.00 1.21 -0.00 -0.00 -92.47 0.75 98.79 -14.61 -23.55 -19.89 0.00 9.27 0.00 5.67 7.30 1.53 0.12 10.78 -1.22 -0.55 -0.21 -4.76 -20.32 -0.27 0.69 -4.67 -1.73 3.57 -10.70 0.84 -1.13 -19.65 19.30 -41.41 -10.53 -9.46 11.70 4.65 -1.45 2.09 -17.52 4.17 -12.32 -14.57 0.52 -0.79 -9.26 0.57 -0.62 -25.14 -9.94 19.46 -1.45 -1.81 3.23 -10.70 2.47 -2.94 -25.53 -17.33 30.93 -13.28 4.68 -4.74 -4.18 1.27 -1.11 -92.47 -0.74 -98.75 -17.37 22.92 17.38 0.00 -7.35 -0.00 5.69 -7.82 -1.70 0.12 -11.56 1.22 2.56 0.01 5.27 -20.31 0.27 -0.69 -4.67 1.73 -3.57 -10.70 -0.84 1.13 -19.65 -19.30 41.41 -10.54 9.46 -11.69 4.65 1.45 -2.09 -17.53 -4.17 12.32 -14.56 -0.52 0.79 -9.26 -0.57 0.62 -25.14 9.94 -19.46 -1.44 1.81 -3.23 -10.71 -2.47 2.94 -25.53 17.32 -30.93 -13.29 -4.68 4.74 -4.19 -1.27 1.11 
-0.0008 32.3625 7.4150 48.28 4.43 -4.87 -135.88 -10.51 -7.26 0.00 -1.40 0.00 0.21 -6.68 7.85 -0.00 -0.86 -0.00 81.76 28.65 -90.36 30.06 0.50 -15.91 -137.84 27.59 -7.76 -0.01 -7.51 -0.00 -2.63 16.64 8.11 -0.00 2.54 0.00 90.69 30.05 -73.15 30.06 -0.50 15.91 -48.50 -78.31 -90.36 27.53 0.00 0.01 9.03 0.00 0.01 3.52 0.00 0.01 -5.82 0.00 0.01 -9.56 0.00 0.01 -10.96 -0.00 0.01 -7.47 -0.00 0.01 -5.51 -0.00 0.01 19.87 0.00 -0.02 -8.89 -0.00 -0.00 0.99 -0.01 -0.13 -92.47 0.75 98.79 -14.57 -23.50 -19.89 0.00 9.31 0.00 5.67 7.33 1.54 0.12 10.83 -1.22 -0.51 -0.24 -4.80 -20.32 -0.27 0.69 -4.67 -1.73 3.57 -10.70 0.84 -1.13 -19.65 19.30 -41.41 -10.53 -9.46 11.70 4.65 -1.45 2.09 -17.52 4.17 -12.32 -14.57 0.52 -0.79 -9.26 0.57 -0.62 -25.14 -9.94 19.46 -1.45 -1.81 3.23 -10.70 2.47 -2.94 -25.53 -17.33 30.93 -13.28 4.68 -4.74 -4.18 1.27 -1.11 -92.47 -0.74 -98.75 -17.48 22.91 17.37 0.00 -7.35 -0.00 5.69 -7.87 -1.71 0.13 -11.64 1.22 2.47 0.03 5.35 -20.31 0.27 -0.69 -4.67 1.73 -3.57 -10.70 -0.84 1.13 -19.65 -19.30 41.41 -10.54 9.46 -11.69 4.65 1.45 -2.09 -17.53 -4.17 12.32 -14.56 -0.52 0.79 -9.26 -0.57 0.62 -25.14 9.94 -19.46 -1.44 1.81 -3.23 -10.71 -2.47 2.94 -25.53 17.32 -30.93 -13.29 -4.68 4.74 -4.19 -1.27 1.11 
0.0030 32.3631 7.3988 48.26 4.38 -4.87 -135.88 -10.53 -7.29 0.00 -1.42 0.00 0.24 -6.69 7.94 -0.00 -0.87 -0.00 81.74 28.63 -90.36 30.06 0.50 -15.91 -137.83 27.58 -7.76 -0.01 -7.51 -0.00 -2.63 16.64 8.10 -0.00 2.53 0.00 90.67 30.09 -73.14 30.06 -0.50 15.91 -48.59 -78.29 -90.37 27.52 0.02 0.02 9.03 0.02 0.02 3.51 0.02 0.01 -5.82 0.02 0.02 -9.56 0.02 0.02 -10.96 0.01 0.02 -7.47 0.01 0.02 -5.51 0.01 0.02 19.89 0.02 -0.08 -8.89 -0.00 -0.00 0.71 -0.08 -0.36 -92.47 0.75 98.79 -14.56 -23.41 -20.09 0.00 9.36 0.00 5.68 7.39 1.56 0.12 10.91 -1.22 -0.44 -0.25 -4.85 -20.32 -0.27 0.69 -4.67 -1.73 3.57 -10.70 0.84 -1.13 -19.65 19.30 -41.41 -10.53 -9.46 11.70 4.65 -1.45 2.09 -17.52 4.17 -12.32 -14.57 0.52 -0.79 -9.26 0.57 -0.62 -25.14 -9.94 19.46 -1.45 -1.81 3.23 -10.70 2.47 -2.94 -25.53 -17.33 30.93 -13.28 4.68 -4.74 -4.18 1.27 -1.11 -92.47 -0.74 -98.75 -17.62 22.95 17.19 0.00 -7.34 -0.00 5.70 -7.96 -1.74 0.13 -11.76 1.22 2.28 0.03 5.53 -20.31 0.27 -0.69 -4.67 1.73 -3.57 -10.70 -0.84 1.13 -19.65 -19.30 41.41 -10.54 9.46 -11.69 4.65 1.45 -2.09 -17.53 -4.17 12.32 -14.56 -0.52 0.79 -9.26 -0.57 0.62 -25.14 9.94 -19.46 -1.44 1.81 -3.23 -10.71 -2.47 2.94 -25.53 17.32 -30.93 -13.29 -4.68 4.74 -4.19 -1.27 1.11 
0.0062 32.3635 7.3807 48.23 4.33 -4.85 -135.88 -10.55 -7.33 0.00 -1.45 0.00 0.26 -6.69 8.02 -0.00 -0.88 -0.00 81.73 28.63 -90.37 30.06 0.50 -15.91 -137.82 27.55 -7.76 -0.01 -7.53 -0.00 -2.64 16.63 8.11 -0.00 2.53 0.00 90.66 30.12 -73.15 30.06 -0.50 15.91 -48.72 -78.28 -90.44 27.52 0.02 0.03 9.03 0.02 0.03 3.51 0.02 0.02 -5.82 0.02 0.03 -9.56 0.02 0.03 -10.96 0.01 0.03 -7.47 0.01 0.03 -5.51 0.00 0.03 19.89 0.02 -0.12 -8.89 -0.00 -0.00 0.43 -0.02 -0.53 -92.47 0.75 98.79 -14.53 -23.32 -20.13 0.00 9.35 0.00 5.68 7.47 1.59 0.12 11.04 -1.22 -0.34 -0.25 -4.93 -20.32 -0.27 0.69 -4.67 -1.73 3.57 -10.70 0.84 -1.13 -19.65 19.30 -41.41 -10.53 -9.46 11.70 4.65 -1.45 2.09 -17.52 4.17 -12.32 -14.57 0.52 -0.79 -9.26 0.57 -0.62 -25.14 -9.94 19.46 -1.45 -1.81 3.23 -10.70 2.47 -2.94 -25.53 -17.33 30.93 -13.28 4.68 -4.74 -4.18 1.27 -1.11 -92.47 -0.74 -98.75 -17.78 22.93 17.26 0.00 -7.35 -0.00 5.70 -8.02 -1.76 0.13 -11.86 1.22 2.11 0.02 5.55 -20.31 0.27 -0.69 -4.67 1.73 -3.57 -10.70 -0.84 1.13 -19.65 -19.30 41.41 -10.54 9.46 -11.69 4.65 1.45 -2.09 -17.53 -4.17 12.32 -14.56 -0.52 0.79 -9.26 -0.57 0.62 -25.14 9.94 -19.46 -1.44 1.81 -3.23 -10.71 -2.47 2.94 -25.53 17.32 -30.93 -13.29 -4.68 4.74 -4.19 -1.27 1.11 
0.0092 32.3638 7.3703 48.21 4.28 -4.84 -135.86 -10.58 -7.33 0.00 -1.48 0.00 0.28 -6.69 8.08 -0.00 -0.89 -0.00 81.71 28.62 -90.37 30.06 0.50 -15.91 -137.81 27.53 -7.74 -0.01 -7.54 -0.00 -2.65 16.64 8.12 -0.00 2.53 0.00 90.65 30.12 -73.15 30.06 -0.50 15.91 -48.89 -78.28 -90.56 27.52 0.00 0.04 9.03 0.01 0.04 3.51 0.01 0.04 -5.82 0.01 0.04 -9.56 0.00 0.04 -10.97 -0.01 0.04 -7.47 -0.01 0.04 -5.51 -0.01 0.04 19.89 0.01 -0.16 -8.89 -0.00 -0.00 0.20 0.16 -0.70 -92.47 0.75 98.79 -14.52 -23.32 -20.07 0.00 9.31 0.00 5.68 7.60 1.63 0.12 11.23 -1.22 -0.26 -0.23 -5.02 -20.32 -0.27 0.69 -4.67 -1.73 3.57 -10.70 0.84 -1.13 -19.65 19.30 -41.41 -10.53 -9.46 11.70 4.65 -1.45 2.09 -17.52 4.17 -12.32 -14.57 0.52 -0.79 -9.26 0.57 -0.62 -25.14 -9.94 19.46 -1.45 -1.81 3.23 -10.70 2.47 -2.94 -25.53 -17.33 30.93 -13.28 4.68 -4.74 -4.18 1.27 -1.11 -92.47 -0.74 -98.75 -17.98 22.85 17.47 0.00 -7.39 -0.00 5.70 -8.07 -1.78 0.13 -11.93 1.22 2.00 0.02 5.53 -20.31 0.27 -0.69 -4.67 1.73 -3.57 -10.70 -0.84 1.13 -19.65 -19.30 41.41 -10.54 9.46 -11.69 4.65 1.45 -2.09 -17.53 -4.17 12.32 -14.56 -0.52 0.79 -9.26 -0.57 0.62 -25.14 9.94 -19.46 -1.44 1.81 -3.23 -10.71 -2.47 2.94 -25.53 17.32 -30.93 -13.29 -4.68 4.74 -4.19 -1.27 1.11 
0.0119 32.3632 7.3626 48.19 4.23 -4.83 -135.85 -10.60 -7.31 0.00 -1.50 0.00 0.29 -6.70 8.11 -0.00 -0.90 -0.00 81.69 28.60 -90.37 30.06 0.50 -15.91 -137.80 27.51 -7.72 -0.01 -7.56 -0.00 -2.66 16.63 8.13 -0.00 2.53 0.00 90.64 30.12 -73.15 30.06 -0.50 15.91 -48.78 -78.30 -90.48 27.53 0.01 0.03 9.03 0.02 0.03 3.52 0.02 0.03 -5.82 0.01 0.03 -9.56 0.01 0.03 -10.96 0.00 0.03 -7.47 -0.00 0.03 -5.51 -0.00 0.03 19.88 0.02 -0.13 -8.89 -0.00 -0.00 -0.04 0.15 -0.68 -92.47 0.75 98.79 -14.76 -23.21 -20.31 0.00 9.23 0.00 5.69 7.73 1.67 0.12 11.43 -1.22 -0.14 -0.22 -5.02 -20.32 -0.27 0.69 -4.67 -1.73 3.57 -10.70 0.84 -1.13 -19.65 19.30 -41.41 -10.53 -9.46 11.70 4.65 -1.45 2.09 -17.52 4.17 -12.32 -14.57 0.52 -0.79 -9.26 0.57 -0.62 -25.14 -9.94 19.46 -1.45 -1.81 3.23 -10.70 2.47 -2.94 -25.53 -17.33 30.93 -13.28 4.68 -4.74 -4.18 1.27 -1.11 -92.47 -0.74 -98.75 -17.90 22.87 17.43 0.00 -7.37 -0.00 5.70 -8.14 -1.80 0.13 -12.03 1.23 1.95 0.00 5.55 -20.31 0.27 -0.69 -4.67 1.73 -3.57 -10.70 -0.84 1.13 -19.65 -19.30 41.41 -10.54 9.46 -11.69 4.65 1.45 -2.09 -17.53 -4.17 12.32 -14.56 -0.52 0.79 -9.26 -0.57 0.62 -25.14 9.94 -19.46 -1.44 1.81 -3.23 -10.71 -2.47 2.94 -25.53 17.32 -30.93 -13.29 -4.68 4.74 -4.19 -1.27 1.11 
0.0146 32.3630 7.3560 48.17 4.17 -4.82 -135.84 -10.63 -7.29 0.00 -1.53 0.00 0.30 -6.71 8.15 -0.00 -0.91 -0.00 81.68 28.60 -90.38 30.06 0.50 -15.91 -137.80 27.48 -7.69 -0.01 -7.58 -0.00 -2.68 16.63 8.14 -0.00 2.53 0.00 90.63 30.11 -73.16 30.06 -0.50 15.91 -48.95 -78.27 -90.60 27.52 -0.00 0.04 9.03 0.01 0.04 3.51 0.01 0.04 -5.83 0.00 0.04 -9.57 -0.00 0.04 -10.97 -0.01 0.04 -7.47 -0.02 0.04 -5.51 -0.02 0.04 19.90 0.01 -0.17 -8.89 -0.00 -0.00 -0.12 0.29 -0.90 -92.47 0.75 98.79 -14.76 -23.29 -20.34 0.00 9.18 0.00 5.69 7.85 1.71 0.13 11.61 -1.22 -0.05 -0.22 -5.07 -20.32 -0.27 0.69 -4.67 -1.73 3.57 -10.70 0.84 -1.13 -19.65 19.30 -41.41 -10.53 -9.46 11.70 4.65 -1.45 2.09 -17.52 4.17 -12.32 -14.57 0.52 -0.79 -9.26 0.57 -0.62 -25.14 -9.94 19.46 -1.45 -1.81 3.23 -10.70 2.47 -2.94 -25.53 -17.33 30.93 -13.28 4.68 -4.74 -4.18 1.27 -1.11 -92.47 -0.74 -98.75 -18.13 22.82 17.60 0.00 -7.42 -0.00 5.71 -8.16 -1.80 0.13 -12.07 1.23 1.99 0.02 5.52 -20.31 0.27 -0.69 -4.67 1.73 -3.57 -10.70 -0.84 1.13 -19.65 -19.30 41.41 -10.54 9.46 -11.69 4.65 1.45 -2.09 -17.53 -4.17 12.32 -14.56 -0.52 0.79 -9.26 -0.57 0.62 -25.14 9.94 -19.46 -1.44 1.81 -3.23 -10.71 -2.47 2.94 -25.53 17.32 -30.93 -13.29 -4.68 4.74 -4.19 -1.27 1.11 
